<?xml version="1.0" encoding="UTF-8"?>
<svg xmlns="http://www.w3.org/2000/svg" xmlns:xlink="http://www.w3.org/1999/xlink" viewBox="0 0 1430.4 791.52">
  <defs>
    <style>
      .cls-1 {
        font-size: 34.46px;
      }

      .cls-1, .cls-2 {
        font-family: AgencyFB-Reg, 'Agency FB';
      }

      .cls-3 {
        fill: none;
      }

      .cls-3, .cls-4 {
        stroke: #000;
        stroke-miterlimit: 10;
      }

      .cls-5 {
        fill: #3ea636;
        font-size: 35.73px;
      }

      .cls-5, .cls-6 {
        font-family: AgencyFB-Bold, 'Agency FB';
        font-weight: 700;
      }

      .cls-6 {
        font-size: 23.68px;
      }

      .cls-2 {
        font-size: 41.04px;
      }

      .cls-4 {
        fill: #3ba438;
      }
    </style>
  </defs>
  <g id="Background">
    <g id="LateralInfo">
      <text class="cls-2" transform="translate(54.48 683.63)"><tspan x="0" y="0">0</tspan></text>
      <text class="cls-2" transform="translate(32.04 550.32)"><tspan x="0" y="0">50</tspan></text>
      <text class="cls-2" transform="translate(15.22 420.02)"><tspan x="0" y="0">100</tspan></text>
      <text class="cls-2" transform="translate(13.71 291.67)"><tspan x="0" y="0">150</tspan></text>
      <text class="cls-2" transform="translate(12.2 164.89)"><tspan x="0" y="0">200</tspan></text>
      <text class="cls-2" transform="translate(13.43 46.32)"><tspan x="0" y="0">250</tspan></text>
      <text class="cls-1" transform="translate(101.99 46.32)"><tspan x="0" y="0">Deslocamento</tspan></text>
      <text class="cls-1" transform="translate(102.67 89.83)"><tspan x="0" y="0">m³/h (50Hz)</tspan></text>
    </g>
    <g id="Grade">
      <rect class="cls-3" x="86.24" y="54.83" width="249" height="666.84"/>
      <rect class="cls-3" x="335.24" y="54.83" width="149.22" height="666.84"/>
      <rect class="cls-3" x="485.21" y="54.83" width="199.47" height="666.84"/>
      <rect class="cls-3" x="685.55" y="54.83" width="199.32" height="666.84"/>
      <rect class="cls-3" x="885.83" y="54.83" width="199.32" height="666.84"/>
      <rect class="cls-3" x="1085.04" y="54.83" width="201.85" height="666.84"/>
      <rect class="cls-3" x="1286.78" y="54.83" width="100.93" height="666.84"/>
      <rect class="cls-3" x="86.24" y="54.23" width="1301.46" height="133.18"/>
      <rect class="cls-3" x="86.24" y="187.41" width="1301.46" height="133.18"/>
      <rect class="cls-3" x="86.24" y="321.36" width="1301.46" height="133.18"/>
      <rect class="cls-3" x="86.24" y="454.6" width="1301.46" height="130.05"/>
      <rect class="cls-3" x="86.24" y="584.65" width="1301.46" height="136.37"/>
    </g>
  </g>
  <g id="SubFamilias">
    <text class="cls-6" transform="translate(115.9 782.23) rotate(-90)"><tspan x="0" y="0">2KES</tspan></text>
    <text class="cls-6" transform="translate(163.13 782.23) rotate(-90)"><tspan x="0" y="0">2JES</tspan></text>
    <text class="cls-6" transform="translate(215.41 782.23) rotate(-90)"><tspan x="0" y="0">2HES</tspan></text>
    <text class="cls-6" transform="translate(264.86 782.23) rotate(-90)"><tspan x="0" y="0">2GES</tspan></text>
    <text class="cls-6" transform="translate(316.45 782.23) rotate(-90)"><tspan x="0" y="0">2FES</tspan></text>
    <text class="cls-6" transform="translate(366.59 782.23) rotate(-90)"><tspan x="0" y="0">2EES</tspan></text>
    <text class="cls-6" transform="translate(416.58 782.23) rotate(-90)"><tspan x="0" y="0">2DES</tspan></text>
    <text class="cls-6" transform="translate(468.14 782.23) rotate(-90)"><tspan x="0" y="0">2CES</tspan></text>
    <text class="cls-6" transform="translate(517.38 782.23) rotate(-90)"><tspan x="0" y="0">4FES</tspan></text>
    <text class="cls-6" transform="translate(566.09 782.23) rotate(-90)"><tspan x="0" y="0">4EES</tspan></text>
    <text class="cls-6" transform="translate(615.56 782.23) rotate(-90)"><tspan x="0" y="0">4DES</tspan></text>
    <text class="cls-6" transform="translate(668.16 782.23) rotate(-90)"><tspan x="0" y="0">4CES</tspan></text>
    <text class="cls-6" transform="translate(716.13 782.23) rotate(-90)"><tspan x="0" y="0">4VES</tspan></text>
    <text class="cls-6" transform="translate(767.23 782.23) rotate(-90)"><tspan x="0" y="0">4TES</tspan></text>
    <text class="cls-6" transform="translate(815.83 782.23) rotate(-90)"><tspan x="0" y="0">4PES</tspan></text>
    <text class="cls-6" transform="translate(867.58 782.23) rotate(-90)"><tspan x="0" y="0">4NES</tspan></text>
    <text class="cls-6" transform="translate(917.99 782.23) rotate(-90)"><tspan x="0" y="0">4JE</tspan></text>
    <text class="cls-6" transform="translate(966.77 782.23) rotate(-90)"><tspan x="0" y="0">4HE</tspan></text>
    <text class="cls-6" transform="translate(1018.95 782.23) rotate(-90)"><tspan x="0" y="0">4GE</tspan></text>
    <text class="cls-6" transform="translate(1067.96 782.23) rotate(-90)"><tspan x="0" y="0">4FE</tspan></text>
    <text class="cls-6" transform="translate(1117.46 782.23) rotate(-90)"><tspan x="0" y="0">6JE</tspan></text>
    <text class="cls-6" transform="translate(1168.67 782.23) rotate(-90)"><tspan x="0" y="0">6HE</tspan></text>
    <text class="cls-6" transform="translate(1217.39 782.23) rotate(-90)"><tspan x="0" y="0">6GE</tspan></text>
    <text class="cls-6" transform="translate(1268.55 782.23) rotate(-90)"><tspan x="0" y="0">6FE</tspan></text>
    <text class="cls-6" transform="translate(1318.98 782.23) rotate(-90)"><tspan x="0" y="0">6GE</tspan></text>
    <text class="cls-6" transform="translate(1369.6 782.23) rotate(-90)"><tspan x="0" y="0">8FE</tspan></text>
  </g>
  <g id="Colunas">
    <rect class="cls-4" x="98.57" y="709.34" width="22.11" height="12.33"/>
    <rect class="cls-4" x="145.8" y="708.07" width="22.11" height="13.6"/>
    <rect class="cls-4" x="198.08" y="703.86" width="22.11" height="17.8"/>
    <rect class="cls-4" x="247.52" y="703.86" width="22.11" height="17.8"/>
    <rect class="cls-4" x="299.12" y="697.89" width="22.11" height="23.77"/>
    <rect class="cls-4" x="349.26" y="691.98" width="22.11" height="29.69"/>
    <rect class="cls-4" x="399.25" y="688.19" width="22.11" height="33.47"/>
    <rect class="cls-4" x="450.8" y="681.8" width="22.11" height="39.86"/>
    <rect class="cls-4" x="500.04" y="674.89" width="22.11" height="46.78"/>
    <rect class="cls-4" x="548.76" y="661.98" width="22.11" height="59.69"/>
    <rect class="cls-4" x="598.23" y="652.32" width="22.11" height="69.34"/>
    <rect class="cls-4" x="650.83" y="638.76" width="22.11" height="82.91"/>
    <rect class="cls-4" x="698.8" y="629.5" width="22.11" height="92.17"/>
    <rect class="cls-4" x="749.89" y="612.61" width="22.11" height="109.06"/>
    <rect class="cls-4" x="798.49" y="591.35" width="22.11" height="130.32"/>
    <rect class="cls-4" x="850.24" y="571.1" width="22.11" height="150.57"/>
    <rect class="cls-4" x="900.66" y="553.39" width="22.11" height="168.28"/>
    <rect class="cls-4" x="949.44" y="524.95" width="22.11" height="196.71"/>
    <rect class="cls-4" x="1001.61" y="497.92" width="22.11" height="223.74"/>
    <rect class="cls-4" x="1050.62" y="448" width="22.11" height="273.67"/>
    <rect class="cls-4" x="1100.12" y="468.44" width="22.11" height="253.22"/>
    <rect class="cls-4" x="1151.34" y="429.31" width="22.11" height="292.35"/>
    <rect class="cls-4" x="1200.05" y="386.66" width="22.11" height="335.01"/>
    <rect class="cls-4" x="1251.22" y="313.49" width="22.11" height="408.18"/>
    <rect class="cls-4" x="1301.65" y="228.96" width="22.11" height="492.7"/>
    <rect class="cls-4" x="1352.27" y="146.01" width="22.11" height="575.66"/>
  </g>
  <g id="Motore">
    <text class="cls-5" transform="translate(175.39 633.83)"><tspan x="0" y="0">CE1</tspan></text>
    <text class="cls-5" transform="translate(372.57 634.25)"><tspan x="0" y="0">CE2</tspan></text>
    <text class="cls-5" transform="translate(545.13 539.45)"><tspan x="0" y="0">CE3</tspan></text>
    <text class="cls-5" transform="translate(749.49 523.73)"><tspan x="0" y="0">CE4</tspan></text>
    <text class="cls-5" transform="translate(948.84 403.41)"><tspan x="0" y="0">BE5</tspan></text>
    <text class="cls-5" transform="translate(1144.89 311.68)"><tspan x="0" y="0">BE6</tspan></text>
    <text class="cls-5" transform="translate(1289.8 178.53)"><tspan x="0" y="0">CE8</tspan></text>
    <image width="507" height="388" transform="translate(146.1 468.45) scale(.27)" xlink:href="Tabela Compressores-1.png"/>
    <image width="495" height="383" transform="translate(343.62 203.88) scale(.28)" xlink:href="Tabela Compressores-2.png"/>
    <image width="484" height="405" transform="translate(495.13 323.94) scale(.31)" xlink:href="Tabela Compressores-3.png"/>
    <image width="511" height="364" transform="translate(693.19 61.08) scale(.35)" xlink:href="Tabela Compressores-4.png"/>
    <image width="497" height="348" transform="translate(884.83 193.6) scale(.36)" xlink:href="Tabela Compressores-5.png"/>
    <image width="498" height="300" transform="translate(1080.17 175.38) scale(.37)" xlink:href="Tabela Compressores-6.png"/>
    <image width="508" height="302" transform="translate(1217.66 40.41) scale(.36)" xlink:href="Tabela Compressores-7.png"/>
  </g>
</svg>